<svg width="221" xmlns="http://www.w3.org/2000/svg" xmlns:xlink="http://www.w3.org/1999/xlink" viewBox="0 0 221 193" height="193">
    <defs/>
    <g transform="translate(-222.57,-318.84)">
        <path stroke="#454545" id="shape1" transform="translate(304.83,387.18)" d="M56.7,28.3L42.5,52.9L14.2,52.9L0,28.3L14.2,3.8L42.5,3.8L56.7,28.3z" fill="none" stroke-width="6.66667"/>
        <path stroke="#454545" id="shape2" transform="translate(323.73,406.07)" d="M18.9,9.4L14.2,17.6L4.7,17.6L0,9.4L4.7,1.3L14.2,1.3L18.9,9.4z" fill="none" stroke-width="6.66667"/>
        <path stroke="#454545" id="shape3" transform="translate(285.93,368.28)" d="M94.5,47.2L70.9,88.2L23.6,88.2L0,47.2L23.6,6.3L70.9,6.3L94.5,47.2z" fill="none" stroke-width="6.66667"/>
        <path stroke="#454545" id="shape4" transform="translate(267.04,349.38)" d="M132.3,66.1L99.2,123.4L33.1,123.4L0,66.1L33.1,8.9L99.2,8.9L132.3,66.1z" fill="none" stroke-width="6.66667"/>
        <path stroke="#454545" id="shape5" transform="translate(248.14,330.48)" d="M170.1,85L127.6,158.7L42.5,158.7L0,85L42.5,11.4L127.6,11.4L170.1,85z" fill="none" stroke-width="6.66667"/>
        <path stroke="#454545" id="shape6" transform="translate(229.24,311.59)" d="M207.9,103.9L155.9,193.9L52,193.9L0,103.9L52,13.9L155.9,13.9L207.9,103.9z" fill="none" stroke-width="6.66667"/>
    </g>
</svg>
